<?xml version="1.0" encoding="UTF-8"?>
<svg width="56px" height="56px" viewBox="0 0 56 56" version="1.1" xmlns="http://www.w3.org/2000/svg" xmlns:xlink="http://www.w3.org/1999/xlink">
    <!-- Generator: Sketch 61.2 (89653) - https://sketch.com -->
    <title>Cnet</title>
    <desc>Created with Sketch.</desc>
    <g id="Landing-Page" stroke="none" stroke-width="1" fill="none" fill-rule="evenodd">
        <g id="Landing-Page-" transform="translate(-548.000000, -7327.000000)" fill="#68778D" fill-rule="nonzero">
            <g id="Press" transform="translate(237.000000, 7205.000000)">
                <path d="M339,122 C354.463973,122 367,134.536027 367,150 C367,165.463973 354.463973,178 339,178 C323.536027,178 311,165.463973 311,150 C311,134.536027 323.536027,122 339,122 Z M330.072824,134.756661 L328.083481,134.756661 L328.083481,167.058615 L330.072824,167.058615 L330.072824,134.756661 Z M326.220217,146.31661 C326.130145,141.173367 317.143162,141.247602 317.216696,146.44405 L317.216696,146.44405 L317.216696,155.744227 L317.219056,155.963928 C317.401498,161.019084 326.414955,161.088835 326.243339,155.744227 L326.243339,155.744227 L326.243339,153.804618 L323.507993,153.804618 L323.507993,155.893428 L323.500785,156.048361 C323.324575,157.908791 319.976255,157.903057 319.952043,155.893428 L319.952043,155.893428 L319.952043,146.51865 L319.961162,146.361754 C320.160311,144.477094 323.507993,144.457979 323.507993,146.419183 L323.507993,146.419183 L323.53286,148.159858 L326.218472,148.159858 L326.218472,146.543517 Z M353.349865,146.340426 C353.259102,141.173367 344.247957,141.247602 344.321492,146.44405 L344.321492,146.44405 L344.321492,155.744227 L344.323852,155.963928 C344.506294,161.019084 353.519751,161.088835 353.348135,155.744227 L353.348135,155.744227 L353.348135,153.804618 L350.612789,153.804618 L350.612789,155.893428 L350.605581,156.048361 C350.42937,157.908791 347.081051,157.903057 347.056838,155.893428 L347.056838,155.893428 L347.056838,151.541741 L352.850799,151.541741 L352.939897,151.533691 C353.171305,151.491393 353.348135,151.287547 353.348135,151.044405 L353.348135,151.044405 L353.348135,146.568384 Z M358.321492,138.71048 L355.561279,138.71048 L355.561279,155.694494 L355.578866,155.916915 C355.707496,157.316368 356.170515,158.531794 357.351687,159.05151 C357.14032,158.957569 357.860535,159.329419 358.674403,159.350077 L358.674403,159.350077 L361.454707,159.349911 L361.454707,157.335702 L361.442274,157.335428 C361.319882,157.332788 360.323268,157.312389 359.763766,157.335702 C359.017762,157.335702 358.371226,156.987567 358.321492,155.943162 L358.321492,155.943162 L358.321492,144.976909 L360.957371,144.976909 L360.957371,142.987567 L358.321492,142.987567 L358.321492,138.71048 Z M339.96224,142.96977 C340.058583,143.00222 338.571048,142.222913 337.060391,143.062167 C335.841918,143.73357 335.369449,144.42984 335.369449,144.42984 L335.369449,144.42984 L335.344583,142.9627 L331.465364,142.9627 L331.465364,144.976909 L332.982238,144.976909 L332.982238,157.335702 L331.714032,157.335702 L331.714032,159.349911 L335.717584,159.349911 L335.717584,146.269982 C335.767318,144.305506 339,144.255773 339,146.170515 L339,146.170515 L339,159.349911 L343.476021,159.349911 L343.476021,157.335702 L341.735346,157.335702 L341.735346,146.319716 C341.640853,144.902309 341.232167,143.641998 340.125527,143.050467 L340.125527,143.050467 L339.946247,142.963661 Z M347.067819,146.264352 C347.288682,144.406385 350.612789,144.458633 350.612789,146.44405 L350.612789,146.44405 L350.612789,149.477798 L347.056838,149.477798 L347.056838,146.419183 Z" id="Cnet"></path>
            </g>
        </g>
    </g>
</svg>