<svg width="177" height="77" viewBox="0 0 177 77" fill="none" xmlns="http://www.w3.org/2000/svg">
<path d="M7.99244 61.6574H18.9543C19.5004 61.6574 19.9084 61.6762 20.183 61.7107C20.4544 61.7468 20.7697 61.8598 21.1259 62.0481C21.4821 62.2395 21.7316 62.5596 21.8729 63.0099C22.0156 63.4618 22.0862 64.0659 22.0862 64.8254C22.0862 65.4436 22.0282 65.9536 21.909 66.3569C21.7897 66.7585 21.647 67.0661 21.4822 67.2811C21.3159 67.496 21.0726 67.6545 20.7525 67.7612C20.4324 67.8695 20.1594 67.9275 19.9335 67.9417C19.7075 67.9526 19.3701 67.9589 18.9198 67.9589H4.82595C4.20615 67.9589 3.69783 67.8993 3.29457 67.7785C2.88974 67.6608 2.58058 67.5196 2.36875 67.3532C2.15535 67.1885 1.99529 66.9453 1.88702 66.6236C1.78032 66.3035 1.7223 66.0305 1.70974 65.8061C1.69562 65.5786 1.6925 65.2412 1.6925 64.7909V45.0012C1.6925 43.7929 1.91684 42.9676 2.36875 42.5298C2.81908 42.0905 3.67424 41.8708 4.93111 41.8708H18.9543C19.5004 41.8708 19.9084 41.8896 20.183 41.9257C20.4544 41.9618 20.7697 42.0732 21.1259 42.2631C21.4821 42.4529 21.7316 42.7714 21.8729 43.2249C22.0156 43.6753 22.0862 44.2794 22.0862 45.0404C22.0862 45.6586 22.0282 46.167 21.909 46.5687C21.7897 46.9735 21.647 47.2811 21.4822 47.4945C21.3159 47.7095 21.0726 47.8695 20.7525 47.9762C20.4324 48.0829 20.1594 48.1425 19.9335 48.1567C19.7075 48.1676 19.3701 48.1739 18.9198 48.1739H7.99406V51.7672H15.0394C15.5854 51.7672 15.9934 51.7845 16.268 51.8205C16.5411 51.8535 16.8564 51.9696 17.211 52.1579C17.5672 52.3494 17.8151 52.6679 17.9595 53.1182C18.1007 53.5701 18.1713 54.1742 18.1713 54.9337C18.1713 55.5519 18.1132 56.0619 17.9956 56.4636C17.8747 56.8684 17.7335 57.176 17.5672 57.3894C17.4024 57.6043 17.153 57.7644 16.8203 57.8711C16.4877 57.9778 16.2099 58.0358 15.984 58.0499C15.7565 58.0609 15.4191 58.0656 14.9703 58.0656H7.9956V61.6574H7.99244Z" fill="url(#paint0_linear)"/>
<path d="M34.8244 49.2017C37.1969 49.2017 39.1723 50.1102 40.7509 51.9241C42.3294 53.738 43.1187 55.9521 43.1187 58.5615V64.8254C43.1187 65.3715 43.0983 65.7794 43.0638 66.054C43.0277 66.3271 42.9225 66.6362 42.7421 66.9798C42.5663 67.3235 42.251 67.5667 41.7991 67.7095C41.3488 67.8522 40.7446 67.9229 39.9852 67.9229C39.3654 67.9229 38.857 67.8632 38.4537 67.744C38.0489 67.6263 37.7397 67.4913 37.5279 67.336C37.3145 67.1838 37.1529 66.939 37.0462 66.6079C36.9395 66.2753 36.8799 66.0007 36.8689 65.7873C36.8548 65.5739 36.8485 65.2412 36.8485 64.7909V58.5286C36.8485 57.5541 36.5692 56.7947 36.0137 56.2486C35.4551 55.7057 34.702 55.4311 33.7542 55.4311C32.8284 55.4311 32.0752 55.7167 31.493 56.2847C30.9109 56.8527 30.6222 57.6012 30.6222 58.527V64.8254C30.6222 65.3715 30.6034 65.7794 30.5673 66.054C30.5328 66.3271 30.4261 66.6362 30.2473 66.9798C30.0699 67.3235 29.7561 67.5667 29.3042 67.7095C28.8539 67.8522 28.2482 67.9229 27.4888 67.9229C26.7544 67.9229 26.1612 67.8522 25.7109 67.7095C25.2574 67.5667 24.9436 67.3172 24.7663 66.9626C24.5874 66.6079 24.4807 66.2925 24.4462 66.0195C24.4101 65.7449 24.3929 65.3369 24.3929 64.7909V52.1909C24.3929 51.6699 24.4101 51.2745 24.4462 50.9999C24.4807 50.7285 24.5921 50.4241 24.7835 50.093C24.9718 49.7603 25.2919 49.5297 25.7438 49.3994C26.1941 49.2692 26.7873 49.2033 27.5248 49.2033C28.2371 49.2033 28.8178 49.2739 29.2681 49.4183C29.7184 49.5595 30.0275 49.7682 30.1923 50.0412C30.357 50.3127 30.459 50.5433 30.4951 50.7332C30.5296 50.9246 30.5485 51.1725 30.5485 51.4801C30.5955 51.4095 30.6599 51.3279 30.7446 51.2306C30.8278 51.1364 31.0067 50.9591 31.2781 50.6987C31.5496 50.4366 31.8399 50.2044 32.149 50.002C32.4581 49.8027 32.8567 49.6175 33.3415 49.4528C33.8358 49.2833 34.3269 49.2017 34.8244 49.2017Z" fill="url(#paint1_linear)"/>
<path d="M45.9666 43.5074C45.9666 42.9614 45.9839 42.5534 46.0184 42.2788C46.0545 42.0073 46.1596 41.6919 46.3385 41.3358C46.5158 40.9811 46.8296 40.7316 47.2815 40.5873C47.7319 40.4461 48.336 40.377 49.0971 40.377C49.8314 40.377 50.4198 40.4523 50.8575 40.6061C51.2969 40.7615 51.6092 41.011 51.8006 41.3562C51.992 41.6998 52.1035 42.0136 52.138 42.2992C52.1725 42.5848 52.1929 42.999 52.1929 43.5451V60.0239C52.1929 60.876 52.2635 61.4173 52.4047 61.6433C52.5475 61.8692 52.9398 61.9822 53.58 61.9822C53.9111 61.9822 54.1621 61.9979 54.3268 62.034C54.4932 62.0685 54.702 62.1721 54.9483 62.3368C55.1978 62.5031 55.3766 62.795 55.4833 63.2093C55.59 63.6235 55.6449 64.1758 55.6449 64.8631C55.6449 65.6006 55.59 66.1937 55.4833 66.6425C55.3782 67.0928 55.1978 67.4082 54.9483 67.5855C54.702 67.7628 54.487 67.8711 54.3081 67.9072C54.1308 67.9433 53.875 67.9605 53.5439 67.9605C52.2871 67.9605 51.2765 67.9119 50.5186 67.8177C49.7607 67.722 49.0515 67.5384 48.4003 67.267C47.7476 66.9924 47.2627 66.5734 46.9426 66.0023C46.6225 65.4343 46.3793 64.7093 46.2114 63.8322C46.0466 62.9535 45.9651 61.8253 45.9651 60.4492V43.5074H45.9666Z" fill="url(#paint2_linear)"/>
<path d="M57.6064 52.3321C57.6064 51.786 57.6252 51.378 57.6597 51.105C57.6958 50.8304 57.8009 50.5229 57.9798 50.1792C58.1571 49.8356 58.4709 49.5908 58.9228 49.4496C59.3732 49.3068 59.9772 49.2362 60.7383 49.2362C61.3283 49.2362 61.8335 49.2943 62.2493 49.4151C62.6667 49.5328 62.9743 49.6756 63.1752 49.8403C63.3776 50.0066 63.5329 50.2483 63.638 50.5699C63.7432 50.8916 63.8028 51.1631 63.8138 51.389C63.8263 51.615 63.8342 51.9508 63.8342 52.4027V64.8599C63.8342 65.4059 63.8138 65.8139 63.7793 66.0885C63.7432 66.36 63.638 66.6706 63.4591 67.0143C63.2818 67.3579 62.9681 67.6011 62.5162 67.7424C62.0658 67.8867 61.4616 67.9573 60.7006 67.9573C59.9663 67.9573 59.3716 67.8867 58.9228 67.7424C58.4709 67.6011 58.1571 67.3517 57.9798 66.9955C57.8009 66.6393 57.6958 66.3317 57.6597 66.0712C57.6252 65.8092 57.6064 65.395 57.6064 64.8254V52.3321Z" fill="url(#paint3_linear)"/>
<path d="M77.1073 49.2017C79.4782 49.2017 81.4553 50.1102 83.0322 51.9241C84.6092 53.738 85.4001 55.9521 85.4001 58.5615V64.8254C85.4001 65.3715 85.3812 65.7794 85.3451 66.054C85.3106 66.3271 85.2039 66.6362 85.0251 66.9798C84.8477 67.3235 84.5339 67.5667 84.082 67.7095C83.6317 67.8522 83.026 67.9229 82.2681 67.9229C81.6483 67.9229 81.14 67.8632 80.7367 67.744C80.3334 67.6263 80.0242 67.4913 79.8124 67.336C79.5974 67.1838 79.4374 66.939 79.3307 66.6079C79.2256 66.2753 79.1644 66.0007 79.1549 65.7873C79.1408 65.5739 79.1345 65.2412 79.1345 64.7909V58.5286C79.1345 57.5541 78.8553 56.7947 78.2998 56.2486C77.7428 55.7057 76.988 55.4311 76.0403 55.4311C75.1145 55.4311 74.3598 55.7167 73.7792 56.2847C73.1971 56.8527 72.9084 57.6012 72.9084 58.527V64.8254C72.9084 65.3715 72.8895 65.7794 72.8534 66.054C72.8189 66.3271 72.7122 66.6362 72.5333 66.9798C72.3576 67.3235 72.0422 67.5667 71.5903 67.7095C71.1399 67.8522 70.5358 67.9229 69.7748 67.9229C69.0389 67.9229 68.4458 67.8522 67.997 67.7095C67.5451 67.5667 67.2313 67.3172 67.054 66.9626C66.8751 66.6079 66.77 66.2925 66.7339 66.0195C66.6994 65.7449 66.6805 65.3369 66.6805 64.7909V52.1909C66.6805 51.6699 66.6994 51.2745 66.7339 50.9999C66.77 50.7285 66.8813 50.4241 67.0712 50.093C67.2611 49.7603 67.5796 49.5297 68.0331 49.3994C68.4835 49.2692 69.0765 49.2033 69.8125 49.2033C70.5248 49.2033 71.107 49.2739 71.5558 49.4183C72.0061 49.5595 72.3152 49.7682 72.48 50.0412C72.6447 50.3127 72.7467 50.5433 72.7828 50.7332C72.8189 50.9246 72.8361 51.1725 72.8361 51.4801C72.8832 51.4095 72.9476 51.3279 73.0323 51.2306C73.1154 51.1364 73.2943 50.9591 73.5674 50.6987C73.8372 50.4366 74.1291 50.2044 74.4382 50.002C74.7458 49.8027 75.1459 49.6175 75.6308 49.4528C76.1156 49.2833 76.6067 49.2017 77.1073 49.2017Z" fill="url(#paint4_linear)"/>
<path d="M106.324 56.1764C106.324 57.7424 105.963 58.8753 105.24 59.5751C104.518 60.2749 103.716 60.6249 102.838 60.6249H94.4022C94.4022 61.2886 94.7944 61.8488 95.5774 62.2975C96.362 62.7479 97.2031 62.9738 98.1037 62.9738C98.7439 62.9738 99.3496 62.9268 99.9192 62.8326C100.489 62.7353 100.903 62.6412 101.165 62.547L101.557 62.4042C102.127 62.1422 102.601 62.012 102.982 62.012C103.74 62.012 104.393 62.547 104.94 63.614C105.248 64.2558 105.403 64.8019 105.403 65.2506C105.403 67.3627 102.874 68.4187 97.8197 68.4187C96.0639 68.4187 94.5058 68.119 93.1391 67.5133C91.7755 66.9076 90.7132 66.1105 89.9553 65.1267C89.1959 64.1413 88.6325 63.1041 88.2654 62.012C87.8966 60.923 87.713 59.8058 87.713 58.6666C87.713 55.679 88.6796 53.2877 90.6143 51.4957C92.5475 49.7054 94.9623 48.811 97.8558 48.811C99.0185 48.811 100.086 48.9695 101.06 49.2911C102.033 49.6097 102.838 50.027 103.479 50.5354C104.12 51.047 104.659 51.6354 105.1 52.2991C105.538 52.9613 105.854 53.6219 106.043 54.2731C106.232 54.9243 106.324 55.5597 106.324 56.1764ZM98.8161 57.3862C99.7183 57.3862 100.169 57.0065 100.169 56.247C100.169 55.7041 99.96 55.2648 99.5473 54.9305C99.1299 54.5995 98.5337 54.4331 97.7491 54.4331C96.9897 54.4331 96.2302 54.747 95.4723 55.3762C94.7113 56.0054 94.3316 56.677 94.3316 57.3862H98.8161Z" fill="url(#paint5_linear)"/>
<path d="M123.716 43.7192L133.326 63.578C133.729 64.3861 133.93 64.9902 133.93 65.3934C133.93 66.247 133.242 67.019 131.866 67.7063C131.06 68.1096 130.384 68.312 129.838 68.312C129.458 68.312 129.119 68.2053 128.822 67.9903C128.526 67.7769 128.312 67.551 128.182 67.314C128.05 67.0771 127.867 66.7209 127.628 66.2455L125.78 62.4011H115.921L114.069 66.2455C113.831 66.7209 113.647 67.0629 113.519 67.2779C113.387 67.4913 113.174 67.7094 112.877 67.9354C112.58 68.1613 112.241 68.2743 111.863 68.2743C111.319 68.2743 110.641 68.0719 109.836 67.6686C108.46 67.0049 107.771 66.2455 107.771 65.3903C107.771 64.987 107.972 64.3829 108.375 63.5748L117.986 43.68C118.246 43.1339 118.645 42.6946 119.179 42.3619C119.714 42.0293 120.275 41.8645 120.868 41.8645C122.15 41.8692 123.1 42.4859 123.716 43.7192ZM120.832 52.2615L118.483 57.1367H123.217L120.832 52.2615Z" fill="url(#paint6_linear)"/>
<path d="M135.888 73.046V52.2615C135.888 51.7154 135.907 51.3137 135.941 51.0517C135.977 50.7897 136.084 50.4899 136.263 50.1432C136.44 49.7995 136.743 49.5563 137.172 49.4135C137.597 49.2707 138.179 49.2001 138.915 49.2001C139.982 49.2001 140.735 49.3618 141.174 49.6819C141.614 50.002 141.868 50.4711 141.939 51.0878C142.839 49.8545 144.193 49.2362 145.996 49.2362C148.06 49.2362 149.957 50.151 151.691 51.9775C153.423 53.8055 154.289 55.905 154.289 58.2775C154.289 60.7457 153.428 62.8938 151.708 64.7203C149.987 66.5467 148.083 67.4615 145.996 67.4615C144.193 67.4615 142.852 66.9155 141.975 65.8234V73.0131C141.975 73.5591 141.956 73.9624 141.921 74.2229C141.885 74.4833 141.779 74.7846 141.601 75.1298C141.422 75.4734 141.12 75.7166 140.694 75.8594C140.266 76.0022 139.684 76.0744 138.949 76.0744C138.214 76.0744 137.625 76.0038 137.187 75.8594C136.748 75.7166 136.439 75.4797 136.262 75.1486C136.083 74.816 135.976 74.5194 135.94 74.2589C135.907 73.9953 135.888 73.5921 135.888 73.046ZM142.935 56.2831C142.389 56.9249 142.117 57.6247 142.117 58.3826C142.117 59.1421 142.397 59.8372 142.954 60.4648C143.511 61.094 144.219 61.4063 145.072 61.4063C145.949 61.4063 146.691 61.0988 147.296 60.4837C147.9 59.8654 148.202 59.1656 148.202 58.3826C148.202 57.5996 147.917 56.8935 147.349 56.2643C146.781 55.6382 146.043 55.3213 145.143 55.3213C144.217 55.3213 143.483 55.6414 142.935 56.2831Z" fill="url(#paint7_linear)"/>
<path d="M156.602 73.046V52.2615C156.602 51.7154 156.621 51.3137 156.655 51.0517C156.691 50.7897 156.798 50.4899 156.977 50.1432C157.153 49.7995 157.457 49.5563 157.886 49.4135C158.311 49.2707 158.893 49.2001 159.629 49.2001C160.696 49.2001 161.449 49.3618 161.888 49.6819C162.328 50.002 162.582 50.4711 162.652 51.0878C163.553 49.8545 164.907 49.2362 166.71 49.2362C168.774 49.2362 170.671 50.151 172.403 51.9775C174.135 53.8055 175.001 55.905 175.001 58.2775C175.001 60.7457 174.142 62.8938 172.422 64.7203C170.7 66.5467 168.797 67.4615 166.71 67.4615C164.907 67.4615 163.566 66.9155 162.689 65.8234V73.0131C162.689 73.5591 162.67 73.9624 162.635 74.2229C162.599 74.4833 162.492 74.7846 162.315 75.1298C162.136 75.4734 161.833 75.7166 161.407 75.8594C160.98 76.0022 160.396 76.0744 159.663 76.0744C158.927 76.0744 158.339 76.0038 157.901 75.8594C157.462 75.7166 157.151 75.4797 156.975 75.1486C156.797 74.816 156.69 74.5194 156.654 74.2589C156.621 73.9953 156.602 73.5921 156.602 73.046ZM163.649 56.2831C163.103 56.9249 162.831 57.6247 162.831 58.3826C162.831 59.1421 163.111 59.8372 163.668 60.4648C164.225 61.094 164.932 61.4063 165.786 61.4063C166.663 61.4063 167.405 61.0988 168.009 60.4837C168.614 59.8654 168.918 59.1656 168.918 58.3826C168.918 57.5996 168.632 56.8935 168.064 56.2643C167.496 55.6382 166.759 55.3213 165.858 55.3213C164.931 55.3213 164.195 55.6414 163.649 56.2831Z" fill="url(#paint8_linear)"/>
<path d="M53.7149 4.10056C53.4058 2.69306 51.9354 1.74534 50.5264 2.06073L40.0463 4.35163C38.6059 4.67329 37.6895 6.1059 38.0049 7.54478C38.27 8.76399 39.37 9.64897 40.6206 9.64897C40.8136 9.64897 41.0066 9.62856 41.1964 9.5862L51.675 7.29372C53.1186 6.97362 54.0334 5.54101 53.7149 4.10056Z" fill="url(#paint9_linear)"/>
<path d="M39.6258 18.243C40.0009 17.6608 40.1138 16.8025 39.924 15.9442C39.6368 14.6277 38.7581 13.7067 37.7868 13.7067L31.2389 15.1063C30.8262 15.1973 30.4763 15.4515 30.2252 15.8422C29.8518 16.4259 29.742 17.2842 29.9302 18.1363C30.2174 19.4543 31.0961 20.3738 32.0659 20.3738L38.6075 18.9742C39.0218 18.8847 39.3732 18.6337 39.6258 18.243Z" fill="url(#paint10_linear)"/>
<path d="M44.7616 21.2557L38.2105 22.6522C37.1372 22.8907 36.5739 24.1915 36.9018 25.6806C37.1921 27.0002 38.0708 27.9213 39.039 27.9213L45.5885 26.5232C46.6586 26.2878 47.2235 24.987 46.8987 23.4932C46.61 22.1767 45.7313 21.2557 44.7616 21.2557Z" fill="url(#paint11_linear)"/>
<path d="M1.83848 70.788H1.79048C1.62248 70.788 1.55048 70.836 1.55048 70.92V74.82C1.55048 74.946 1.60448 75 1.73048 75H3.72848C3.81248 75 3.84848 74.946 3.84848 74.82V74.724C3.84848 74.598 3.81248 74.544 3.72848 74.544H2.07848V70.92C2.07848 70.836 2.00648 70.788 1.83848 70.788ZM5.59673 71.826C4.70273 71.826 4.20473 72.408 4.20473 73.446C4.20473 74.478 4.69073 75.036 5.59673 75.036C6.49073 75.036 6.95873 74.484 6.95873 73.446C6.95873 72.402 6.47873 71.826 5.59673 71.826ZM5.57873 72.258C6.16673 72.258 6.43673 72.636 6.43673 73.434C6.43673 74.232 6.16673 74.604 5.57873 74.604C4.99073 74.604 4.73273 74.232 4.73273 73.434C4.73273 72.63 4.99673 72.258 5.57873 72.258ZM10.4601 71.826C9.54215 71.826 9.06215 72.39 9.06215 73.452C9.06215 74.526 9.53615 75.036 10.5321 75.036C11.1381 75.036 11.6121 74.796 11.6121 74.652C11.6121 74.586 11.4861 74.352 11.4021 74.352C11.3421 74.352 11.0481 74.604 10.5261 74.604C9.93215 74.604 9.65015 74.304 9.60215 73.638H11.4981C11.5701 73.638 11.6961 73.464 11.6961 73.392C11.6961 72.372 11.2821 71.826 10.4601 71.826ZM10.4421 72.258C10.9221 72.258 11.1621 72.576 11.1621 73.206H9.60215C9.64415 72.576 9.92015 72.258 10.4421 72.258ZM13.8805 71.826C13.5445 71.826 13.1965 71.994 12.9445 72.276C12.9085 72.12 12.8785 71.88 12.7345 71.88C12.6565 71.88 12.4105 71.904 12.4105 72.018C12.4105 72.048 12.4825 72.282 12.4825 72.774V74.88C12.4825 74.964 12.5545 75.012 12.7225 75.012H12.7465C12.9145 75.012 12.9865 74.964 12.9865 74.88V72.684C13.1845 72.426 13.4725 72.264 13.7425 72.264C14.1325 72.264 14.3545 72.48 14.3545 72.846V74.88C14.3545 74.964 14.4265 75.012 14.5945 75.012H14.6185C14.7865 75.012 14.8585 74.964 14.8585 74.88V72.798C14.8585 72.192 14.4925 71.826 13.8805 71.826ZM17.0404 71.826C16.3504 71.826 15.6184 72.162 15.6184 73.416C15.6184 74.574 16.1224 75.036 17.0944 75.036C17.6164 75.036 18.0364 74.868 18.0364 74.73C18.0364 74.646 17.9164 74.424 17.8324 74.424C17.8264 74.424 17.8024 74.436 17.7664 74.448C17.6584 74.502 17.4244 74.604 17.0884 74.604C16.4104 74.604 16.1584 74.244 16.1584 73.404C16.1584 72.57 16.5004 72.258 17.0284 72.258C17.3524 72.258 17.5744 72.354 17.6824 72.402C17.7184 72.414 17.7364 72.426 17.7484 72.426C17.8264 72.426 17.9404 72.198 17.9404 72.102C17.9404 71.958 17.5024 71.826 17.0404 71.826ZM20.8045 71.85H20.7805C20.6125 71.85 20.5405 71.898 20.5405 71.982V74.178C20.3425 74.436 20.0545 74.598 19.7845 74.598C19.3945 74.598 19.1725 74.382 19.1725 74.016V71.982C19.1725 71.898 19.1005 71.85 18.9325 71.85H18.9085C18.7405 71.85 18.6685 71.898 18.6685 71.982V74.064C18.6685 74.67 19.0345 75.036 19.6465 75.036C19.9825 75.036 20.3305 74.868 20.5825 74.586C20.6185 74.754 20.6485 75.006 20.7925 75.006C20.8705 75.006 21.1165 74.982 21.1165 74.868C21.1165 74.838 21.0445 74.604 21.0445 74.112V71.982C21.0445 71.898 20.9725 71.85 20.8045 71.85ZM23.2863 71.826C22.3683 71.826 21.8883 72.39 21.8883 73.452C21.8883 74.526 22.3623 75.036 23.3583 75.036C23.9643 75.036 24.4383 74.796 24.4383 74.652C24.4383 74.586 24.3123 74.352 24.2283 74.352C24.1683 74.352 23.8743 74.604 23.3523 74.604C22.7583 74.604 22.4763 74.304 22.4283 73.638H24.3243C24.3963 73.638 24.5223 73.464 24.5223 73.392C24.5223 72.372 24.1083 71.826 23.2863 71.826ZM23.2683 72.258C23.7483 72.258 23.9883 72.576 23.9883 73.206H22.4283C22.4703 72.576 22.7463 72.258 23.2683 72.258ZM26.7067 71.826C26.3707 71.826 26.0227 71.994 25.7707 72.276C25.7347 72.12 25.7047 71.88 25.5607 71.88C25.4827 71.88 25.2367 71.904 25.2367 72.018C25.2367 72.048 25.3087 72.282 25.3087 72.774V74.88C25.3087 74.964 25.3807 75.012 25.5487 75.012H25.5727C25.7407 75.012 25.8127 74.964 25.8127 74.88V72.684C26.0107 72.426 26.2987 72.264 26.5687 72.264C26.9587 72.264 27.1807 72.48 27.1807 72.846V74.88C27.1807 74.964 27.2527 75.012 27.4207 75.012H27.4447C27.6127 75.012 27.6847 74.964 27.6847 74.88V72.798C27.6847 72.192 27.3187 71.826 26.7067 71.826ZM29.0985 71.1H29.0385C28.9125 71.1 28.8525 71.148 28.8465 71.232L28.7745 71.862H28.4745C28.3905 71.862 28.3545 71.916 28.3545 72.042V72.114C28.3545 72.24 28.3905 72.294 28.4745 72.294H28.7745V74.208C28.7745 74.904 29.2485 75.036 29.5485 75.036C29.7105 75.036 29.9865 75.018 29.9865 74.856C29.9865 74.808 29.9445 74.574 29.8605 74.574C29.8065 74.574 29.7765 74.604 29.6025 74.604C29.4285 74.604 29.2785 74.52 29.2785 74.16V72.294H29.7825C29.8665 72.294 29.9025 72.24 29.9025 72.114V72.042C29.9025 71.916 29.8665 71.862 29.7825 71.862H29.2785V71.232C29.2785 71.148 29.2245 71.1 29.0985 71.1ZM31.8813 71.826C31.6293 71.826 31.3893 71.988 31.1853 72.276C31.1493 72.12 31.1193 71.88 30.9753 71.88C30.8973 71.88 30.6513 71.904 30.6513 72.018C30.6513 72.048 30.7233 72.282 30.7233 72.774V74.88C30.7233 74.964 30.7953 75.012 30.9633 75.012H30.9873C31.1553 75.012 31.2273 74.964 31.2273 74.88V72.684C31.2273 72.684 31.4673 72.318 31.7793 72.318C31.9833 72.318 32.0313 72.384 32.1093 72.384C32.1813 72.384 32.2293 72.174 32.2293 72.06C32.2293 71.928 32.1153 71.826 31.8813 71.826ZM33.9886 71.826C33.3886 71.826 32.8606 72.054 32.8606 72.21C32.8606 72.276 32.9866 72.51 33.0706 72.51C33.1306 72.51 33.4606 72.258 34.0066 72.258C34.5046 72.258 34.6666 72.492 34.6666 72.762V73.044C33.7486 73.056 32.6746 73.122 32.6746 74.136C32.6746 74.754 33.1186 75.036 33.7006 75.036C34.1506 75.036 34.4806 74.838 34.7086 74.586C34.7446 74.754 34.7746 75.006 34.9186 75.006C34.9966 75.006 35.2426 74.982 35.2426 74.868C35.2426 74.838 35.1706 74.604 35.1706 74.112V72.768C35.1706 72.174 34.7326 71.826 33.9886 71.826ZM34.6666 73.476V74.184C34.4266 74.4 34.1626 74.598 33.7246 74.598C33.3886 74.598 33.2146 74.424 33.2146 74.106C33.2146 73.482 34.0426 73.482 34.6666 73.476ZM36.9281 71.82C36.3461 71.82 35.9321 72.186 35.9321 72.69C35.9321 73.14 36.1181 73.398 36.7661 73.59C37.2161 73.722 37.3661 73.86 37.3661 74.13C37.3661 74.46 37.1621 74.616 36.7781 74.616C36.3521 74.616 36.1121 74.376 36.0701 74.376C35.9861 74.376 35.8601 74.61 35.8601 74.676C35.8601 74.814 36.2681 75.054 36.8141 75.054C37.4081 75.054 37.8761 74.658 37.8761 74.118C37.8761 73.572 37.6541 73.374 36.9161 73.146C36.5801 73.044 36.4481 72.894 36.4481 72.624C36.4481 72.39 36.6821 72.246 36.9821 72.246C37.3061 72.246 37.4981 72.402 37.5281 72.402C37.6061 72.402 37.7201 72.174 37.7201 72.078C37.7201 71.946 37.3361 71.82 36.9281 71.82ZM41.178 71.826C40.578 71.826 40.05 72.054 40.05 72.21C40.05 72.276 40.176 72.51 40.26 72.51C40.32 72.51 40.65 72.258 41.196 72.258C41.694 72.258 41.856 72.492 41.856 72.762V73.044C40.938 73.056 39.864 73.122 39.864 74.136C39.864 74.754 40.308 75.036 40.89 75.036C41.34 75.036 41.67 74.838 41.898 74.586C41.934 74.754 41.964 75.006 42.108 75.006C42.186 75.006 42.432 74.982 42.432 74.868C42.432 74.838 42.36 74.604 42.36 74.112V72.768C42.36 72.174 41.922 71.826 41.178 71.826ZM41.856 73.476V74.184C41.616 74.4 41.352 74.598 40.914 74.598C40.578 74.598 40.404 74.424 40.404 74.106C40.404 73.482 41.232 73.482 41.856 73.476ZM46.867 71.85H46.843C46.675 71.85 46.603 71.898 46.603 71.982V74.178C46.405 74.436 46.117 74.598 45.847 74.598C45.457 74.598 45.235 74.382 45.235 74.016V71.982C45.235 71.898 45.163 71.85 44.995 71.85H44.971C44.803 71.85 44.731 71.898 44.731 71.982V74.064C44.731 74.67 45.097 75.036 45.709 75.036C46.045 75.036 46.393 74.868 46.645 74.586C46.681 74.754 46.711 75.006 46.855 75.006C46.933 75.006 47.179 74.982 47.179 74.868C47.179 74.838 47.107 74.604 47.107 74.112V71.982C47.107 71.898 47.035 71.85 46.867 71.85ZM49.5348 71.826C49.1988 71.826 48.8508 71.994 48.5988 72.276C48.5628 72.12 48.5328 71.88 48.3888 71.88C48.3108 71.88 48.0648 71.904 48.0648 72.018C48.0648 72.048 48.1368 72.282 48.1368 72.774V74.88C48.1368 74.964 48.2088 75.012 48.3768 75.012H48.4008C48.5688 75.012 48.6408 74.964 48.6408 74.88V72.684C48.8388 72.426 49.1268 72.264 49.3968 72.264C49.7868 72.264 50.0088 72.48 50.0088 72.846V74.88C50.0088 74.964 50.0808 75.012 50.2488 75.012H50.2728C50.4408 75.012 50.5128 74.964 50.5128 74.88V72.798C50.5128 72.192 50.1468 71.826 49.5348 71.826ZM54.1361 71.826C53.4461 71.826 52.7141 72.162 52.7141 73.416C52.7141 74.574 53.2181 75.036 54.1901 75.036C54.7121 75.036 55.1321 74.868 55.1321 74.73C55.1321 74.646 55.0121 74.424 54.9281 74.424C54.9221 74.424 54.8981 74.436 54.8621 74.448C54.7541 74.502 54.5201 74.604 54.1841 74.604C53.5061 74.604 53.2541 74.244 53.2541 73.404C53.2541 72.57 53.5961 72.258 54.1241 72.258C54.4481 72.258 54.6701 72.354 54.7781 72.402C54.8141 72.414 54.8321 72.426 54.8441 72.426C54.9221 72.426 55.0361 72.198 55.0361 72.102C55.0361 71.958 54.5981 71.826 54.1361 71.826ZM56.0702 70.488H56.0462C55.8782 70.488 55.8062 70.536 55.8062 70.62V74.208C55.8062 74.904 56.2802 75.036 56.5802 75.036C56.7422 75.036 57.0182 75.018 57.0182 74.856C57.0182 74.808 56.9762 74.574 56.8922 74.574C56.8382 74.574 56.8082 74.604 56.6342 74.604C56.4602 74.604 56.3102 74.52 56.3102 74.16V70.62C56.3102 70.536 56.2382 70.488 56.0702 70.488ZM57.9294 70.488H57.8574C57.6894 70.488 57.6174 70.536 57.6174 70.62V70.974C57.6174 71.058 57.6894 71.106 57.8574 71.106H57.9294C58.0974 71.106 58.1694 71.058 58.1694 70.974V70.62C58.1694 70.536 58.0974 70.488 57.9294 70.488ZM57.9054 71.85H57.8814C57.7134 71.85 57.6414 71.898 57.6414 71.982V74.88C57.6414 74.964 57.7134 75.012 57.8814 75.012H57.9054C58.0734 75.012 58.1454 74.964 58.1454 74.88V71.982C58.1454 71.898 58.0734 71.85 57.9054 71.85ZM60.4173 71.826C59.7273 71.826 58.9953 72.162 58.9953 73.416C58.9953 74.574 59.4993 75.036 60.4713 75.036C60.9933 75.036 61.4133 74.868 61.4133 74.73C61.4133 74.646 61.2933 74.424 61.2093 74.424C61.2033 74.424 61.1793 74.436 61.1433 74.448C61.0353 74.502 60.8013 74.604 60.4653 74.604C59.7873 74.604 59.5353 74.244 59.5353 73.404C59.5353 72.57 59.8773 72.258 60.4053 72.258C60.7293 72.258 60.9513 72.354 61.0593 72.402C61.0953 72.414 61.1133 72.426 61.1253 72.426C61.2033 72.426 61.3173 72.198 61.3173 72.102C61.3173 71.958 60.8793 71.826 60.4173 71.826ZM62.4234 70.488H62.3994C62.2314 70.488 62.1594 70.536 62.1594 70.62V74.88C62.1594 74.964 62.2314 75.012 62.3994 75.012H62.4234C62.5914 75.012 62.6634 74.964 62.6634 74.88V73.512H62.6874L63.8874 74.934C63.9474 75.006 64.0794 75.012 64.2114 75.012H64.2354C64.4214 75.012 64.4994 74.994 64.4994 74.928C64.4994 74.904 64.4874 74.88 64.4454 74.832L63.2094 73.368L64.3254 72.048C64.3674 72 64.3854 71.958 64.3854 71.928C64.3854 71.886 64.3194 71.85 64.1754 71.85H64.1514C64.0194 71.85 63.8874 71.868 63.8334 71.934L62.6874 73.302H62.6634V70.62C62.6634 70.536 62.5914 70.488 62.4234 70.488Z" fill="#A3A3A3"/>
<path d="M90.5249 4.80664C90.2158 3.39914 88.7487 2.45138 87.3365 2.76207L47.5907 11.4644C46.1503 11.7814 45.2339 13.2124 45.5477 14.6544C45.8145 15.8736 46.9128 16.7586 48.1603 16.7586C48.3548 16.7586 48.5479 16.7382 48.7378 16.6958L88.4819 7.9935C89.1817 7.8413 89.778 7.42549 90.164 6.82452C90.5516 6.22355 90.6802 5.50647 90.5249 4.80664Z" fill="url(#paint12_linear)"/>
<path d="M86.8971 11.8912L51.8038 19.5767C51.1071 19.7274 50.5093 20.14 50.1233 20.7426C49.7342 21.3451 49.6055 22.0638 49.7593 22.7667C50.0323 24.0048 51.1087 24.8709 52.3734 24.8709C52.5664 24.8709 52.7609 24.849 52.9492 24.8066L88.0457 17.121C88.7455 16.9688 89.3418 16.553 89.7278 15.9521C90.1154 15.3495 90.2424 14.6324 90.0887 13.9326C89.7811 12.5282 88.3328 11.5884 86.8971 11.8912Z" fill="url(#paint13_linear)"/>
<path d="M85.4394 21.5287L57.1577 27.7205C55.7188 28.0358 54.8025 29.4669 55.1163 30.912C55.3815 32.1312 56.4799 33.0162 57.7273 33.0162C57.9219 33.0162 58.1164 32.9943 58.3062 32.9519L86.5896 26.7633C88.0301 26.4463 88.9464 25.0153 88.6326 23.5748C88.3219 22.1673 86.8704 21.2212 85.4394 21.5287Z" fill="url(#paint14_linear)"/>
<path d="M60.765 37.8538C58.7408 37.871 57.1074 39.6834 57.1199 41.7044C57.1325 43.7144 58.7785 45.5079 60.7854 45.5079H60.8105C62.8331 45.5079 64.4697 43.683 64.4587 41.6605C64.4462 39.6488 62.7986 37.8538 60.765 37.8538ZM60.7869 43.7379V43.7411V43.7379Z" fill="url(#paint15_linear)"/>
<path d="M83.2222 30.3723C81.1981 30.3911 79.5646 31.877 79.5772 34.0424C79.5897 36.1937 81.2357 37.6624 83.2426 37.6624H83.2677C85.2903 37.6624 86.9269 36.1607 86.916 33.9953C86.9034 31.8425 85.2558 30.3723 83.2222 30.3723ZM83.2442 36.6723V36.6754V36.6723Z" fill="url(#paint16_linear)"/>
<defs>
<linearGradient id="paint0_linear" x1="4.77204" y1="54.9357" x2="88.9807" y2="54.6737" gradientUnits="userSpaceOnUse">
<stop stop-color="#FA052A"/>
<stop offset="1" stop-color="#FC4B3F"/>
</linearGradient>
<linearGradient id="paint1_linear" x1="4.78341" y1="58.6517" x2="88.9926" y2="58.3897" gradientUnits="userSpaceOnUse">
<stop stop-color="#FA052A"/>
<stop offset="1" stop-color="#FC4B3F"/>
</linearGradient>
<linearGradient id="paint2_linear" x1="4.76958" y1="54.312" x2="88.9788" y2="54.05" gradientUnits="userSpaceOnUse">
<stop stop-color="#FA052A"/>
<stop offset="1" stop-color="#FC4B3F"/>
</linearGradient>
<linearGradient id="paint3_linear" x1="4.78353" y1="58.7711" x2="88.9924" y2="58.5091" gradientUnits="userSpaceOnUse">
<stop stop-color="#FA052A"/>
<stop offset="1" stop-color="#FC4B3F"/>
</linearGradient>
<linearGradient id="paint4_linear" x1="4.78347" y1="58.7834" x2="88.9924" y2="58.5215" gradientUnits="userSpaceOnUse">
<stop stop-color="#FA052A"/>
<stop offset="1" stop-color="#FC4B3F"/>
</linearGradient>
<linearGradient id="paint5_linear" x1="4.78455" y1="58.9045" x2="88.9933" y2="58.6424" gradientUnits="userSpaceOnUse">
<stop stop-color="#FA052A"/>
<stop offset="1" stop-color="#FC4B3F"/>
</linearGradient>
<linearGradient id="paint6_linear" x1="113.874" y1="55.6974" x2="184.688" y2="51.963" gradientUnits="userSpaceOnUse">
<stop stop-color="#353535"/>
<stop offset="1" stop-color="#444444"/>
</linearGradient>
<linearGradient id="paint7_linear" x1="114.308" y1="63.9337" x2="185.123" y2="60.1993" gradientUnits="userSpaceOnUse">
<stop stop-color="#353535"/>
<stop offset="1" stop-color="#444444"/>
</linearGradient>
<linearGradient id="paint8_linear" x1="114.369" y1="65.0223" x2="185.177" y2="61.2883" gradientUnits="userSpaceOnUse">
<stop stop-color="#353535"/>
<stop offset="1" stop-color="#444444"/>
</linearGradient>
<linearGradient id="paint9_linear" x1="30.2846" y1="15.1685" x2="58.0317" y2="-1.47988" gradientUnits="userSpaceOnUse">
<stop stop-color="#353535"/>
<stop offset="1" stop-color="#444444"/>
</linearGradient>
<linearGradient id="paint10_linear" x1="32.3396" y1="18.5932" x2="60.087" y2="1.94462" gradientUnits="userSpaceOnUse">
<stop stop-color="#353535"/>
<stop offset="1" stop-color="#444444"/>
</linearGradient>
<linearGradient id="paint11_linear" x1="37.5166" y1="27.2202" x2="65.2629" y2="10.5724" gradientUnits="userSpaceOnUse">
<stop stop-color="#353535"/>
<stop offset="1" stop-color="#444444"/>
</linearGradient>
<linearGradient id="paint12_linear" x1="52.7911" y1="12.8385" x2="79.0738" y2="7.47757" gradientUnits="userSpaceOnUse">
<stop stop-color="#FA052A"/>
<stop offset="1" stop-color="#FC4B3F"/>
</linearGradient>
<linearGradient id="paint13_linear" x1="54.554" y1="21.4824" x2="80.8367" y2="16.1216" gradientUnits="userSpaceOnUse">
<stop stop-color="#FA052A"/>
<stop offset="1" stop-color="#FC4B3F"/>
</linearGradient>
<linearGradient id="paint14_linear" x1="56.373" y1="30.4007" x2="82.6557" y2="25.0398" gradientUnits="userSpaceOnUse">
<stop stop-color="#FA052A"/>
<stop offset="1" stop-color="#FC4B3F"/>
</linearGradient>
<linearGradient id="paint15_linear" x1="58.7587" y1="42.097" x2="85.0415" y2="36.7361" gradientUnits="userSpaceOnUse">
<stop stop-color="#FA052A"/>
<stop offset="1" stop-color="#FC4B3F"/>
</linearGradient>
<linearGradient id="paint16_linear" x1="81.2121" y1="34.4345" x2="107.544" y2="29.0634" gradientUnits="userSpaceOnUse">
<stop stop-color="#FA052A"/>
<stop offset="1" stop-color="#FC4B3F"/>
</linearGradient>
</defs>
</svg>
