<?xml version="1.0" encoding="UTF-8"?>
<svg width="183px" height="52px" viewBox="0 0 183 52" version="1.1" xmlns="http://www.w3.org/2000/svg" xmlns:xlink="http://www.w3.org/1999/xlink">
    <!-- Generator: Sketch 61.2 (89653) - https://sketch.com -->
    <title>Nasdaq</title>
    <desc>Created with Sketch.</desc>
    <g id="Landing-Page" stroke="none" stroke-width="1" fill="none" fill-rule="evenodd">
        <g id="Landing-Page-" transform="translate(-745.000000, -7329.000000)" fill="#68778D" fill-rule="nonzero">
            <g id="Press" transform="translate(237.000000, 7205.000000)">
                <path d="M538.508118,137.027318 C537.519864,137.071447 536.646086,137.667821 536.244111,138.559133 L536.170113,138.741252 L522.604217,176 L508,176 L521.564708,138.740064 C521.904404,137.800251 522.770353,137.117245 523.802321,137.03554 L524.010822,137.027318 L538.508118,137.027318 Z M684.652458,144.163362 C685.751368,144.163362 687.236382,144.246505 688.670311,144.329648 L691,144.450799 L691,169.426953 L686.800382,171.28698 L686.800382,163.260119 L686.198931,163.338058 C684.976511,163.483417 684.259147,163.483417 683.664033,163.483417 C682.038834,163.483417 680.234246,163.130653 678.837145,162.541526 C675.709113,161.240932 673.843936,157.938968 673.843936,153.702238 C673.843936,151.588031 674.359532,147.721882 677.80714,145.638556 C679.538072,144.605208 681.580262,144.163362 684.652458,144.163362 Z M650.705049,137.014253 L650.705049,162.903792 L649.764743,163.049487 C648.425028,163.244609 645.896845,163.56656 643.80033,163.56656 C637.512188,163.56656 633.604821,159.924897 633.604821,154.055002 C633.604821,147.962997 637.210434,144.172864 643.016243,144.172864 L643.928328,144.175963 C644.608324,144.186371 645.483309,144.227717 646.604035,144.367656 L646.604035,137.014253 L650.705049,137.014253 Z M624.105486,144.094472 C625.943424,144.094472 627.385317,144.248457 628.580993,144.413544 L630.170282,144.645592 L630.170282,147.962997 L629.817442,147.898858 C628.273028,147.614984 626.4625,147.322796 624.722064,147.322796 L624.317382,147.328292 C622.480968,147.379226 620.490369,147.803755 620.490369,149.406122 C620.490369,150.834993 622.369802,151.243582 624.546238,151.717497 L625.192411,151.858756 C628.098039,152.507052 631.363044,153.491895 631.363044,157.354591 C631.363044,161.163728 628.286096,163.349201 622.912723,163.349201 C621.217108,163.349201 619.45571,163.176436 617.40985,162.810382 L616.536669,162.647236 L616.536669,159.228872 L616.902577,159.307264 C618.944767,159.74317 620.707775,160.114938 622.471971,160.114938 L622.769913,160.111707 C624.310729,160.078329 627.214511,159.756389 627.214511,157.795249 C627.214511,156.225713 625.386656,155.705312 623.684289,155.360725 L622.466031,155.121608 C622.307729,155.088648 622.158337,155.055094 622.021715,155.020649 L621.344341,154.836825 C618.859841,154.126466 616.438064,152.96474 616.438064,149.647236 C616.438064,146.117222 619.232266,144.094472 624.105486,144.094472 Z M670.469985,150.330196 L670.469985,162.908543 L670.187238,162.940612 C667.61068,163.229475 665.459145,163.317654 663.579959,163.341371 L662.218062,163.349201 L661.729879,163.345657 C657.67672,163.284731 654.042171,162.392508 654.042171,157.182366 C654.042171,151.698993 659.297959,151.314194 662.957094,151.287191 L663.755348,151.285153 C664.116503,151.285153 665.824863,151.364733 666.348775,151.3873 L666.343852,150.596403 C666.302492,147.950868 665.89407,147.290726 661.504067,147.290726 C660.02473,147.290726 658.418187,147.517779 656.899642,147.776286 L655.268198,148.065144 L655.268198,144.798812 L655.508177,144.747739 C657.670356,144.308269 659.755315,144.094472 661.880667,144.094472 L662.394232,144.096644 C666.816948,144.136407 670.469985,144.776069 670.469985,150.330196 Z M612.921552,150.330196 L612.921552,162.908543 L612.637618,162.940612 C609.418108,163.30169 606.860321,163.349201 604.674381,163.349201 L604.185544,163.345657 C600.127189,163.284731 596.493739,162.392508 596.493739,157.182366 C596.493739,151.698993 601.749527,151.314194 605.407706,151.287191 L606.205727,151.285153 C606.56807,151.285153 608.279994,151.364733 608.805095,151.3873 L608.800074,150.596403 C608.758037,147.950868 608.345638,147.290726 603.955635,147.290726 C602.475373,147.290726 600.868625,147.517779 599.350034,147.776286 L597.718578,148.065144 L597.718578,144.798812 L597.964496,144.747739 C600.059425,144.314654 602.192989,144.095772 604.332234,144.094472 L604.845677,144.096644 C609.267414,144.136407 612.921552,144.776069 612.921552,150.330196 Z M578.087887,138.5037 L589.166088,157.659845 L589.161336,138.5037 L593.073455,138.5037 L593.073455,162.972682 L587.625238,162.972682 L576.547037,143.644312 L576.543473,162.972682 L572.682438,162.972682 L572.682438,138.5037 L578.087887,138.5037 Z M568.965152,124 L555.395692,161.261124 C555.06045,162.196482 554.19478,162.882342 553.162829,162.964421 L552.95433,162.972682 L538.615039,162.972682 L538.615039,162.954865 C539.540725,162.861034 540.340397,162.281334 540.721155,161.44337 L540.796227,161.259936 L554.360935,124 L568.965152,124 Z M539.63737,137.598584 L539.841765,137.612636 C540.666013,137.703817 541.38419,138.203192 541.759007,138.933373 L541.8393,139.105893 L544.749927,147.091183 L539.774538,160.764641 C539.659301,161.074646 539.496543,161.302695 539.450211,161.368022 C539.004707,161.99397 538.276456,162.407309 537.444848,162.407309 C536.529509,162.407007 535.696259,161.898515 535.274063,161.098442 L535.190004,160.922613 L532.266309,152.905254 L537.241699,139.236546 C537.312979,139.024786 537.465432,138.780739 537.537461,138.674194 L537.566025,138.633166 C538.043219,137.961094 538.82219,137.576537 539.63737,137.598584 Z M666.594694,154.305619 L663.712137,154.204177 L663.712137,154.204177 L663.048722,154.209135 C659.900569,154.271211 657.976863,154.869873 657.976863,157.284513 C657.976863,160.253906 660.747304,160.499772 663.346672,160.499772 L663.803838,160.492752 C664.789984,160.465908 666.137479,160.369627 666.594694,160.337049 L666.594694,154.305619 Z M609.051013,154.305619 L606.163694,154.204177 L606.163694,154.204177 L605.500337,154.209135 C602.352679,154.271211 600.433183,154.869873 600.433183,157.284513 C600.433183,160.253906 603.198872,160.499772 605.798239,160.499772 L606.257165,160.492752 C607.246303,160.465908 608.593799,160.369627 609.051013,160.337049 L609.051013,154.305619 Z M643.763501,147.401188 C639.790793,147.401188 637.859088,149.545089 637.859088,153.952855 C637.859088,157.910461 640.189965,160.370306 643.934575,160.370306 L644.432158,160.363254 C645.035729,160.346786 645.728735,160.301416 646.602847,160.226587 L646.602847,147.66487 C645.480177,147.484331 644.574913,147.401188 643.763501,147.401188 Z M684.344763,147.391686 C680.178409,147.391686 678.066126,149.517771 678.066126,153.702238 C678.066126,159.089904 681.216731,160.221836 683.865995,160.221836 L684.414232,160.217962 C684.960185,160.207309 685.663772,160.167358 686.840774,160.017542 L686.840774,147.509274 L685.368235,147.419895 C685.175925,147.410541 685.002327,147.403786 684.835672,147.399369 L684.344763,147.391686 Z" id="Nasdaq"></path>
            </g>
        </g>
    </g>
</svg>