<?xml version="1.0" encoding="UTF-8"?>
<svg width="134px" height="50px" viewBox="0 0 134 50" version="1.1" xmlns="http://www.w3.org/2000/svg" xmlns:xlink="http://www.w3.org/1999/xlink">
    <!-- Generator: Sketch 61.2 (89653) - https://sketch.com -->
    <title>Yahoo finance</title>
    <desc>Created with Sketch.</desc>
    <g id="Landing-Page" stroke="none" stroke-width="1" fill="none" fill-rule="evenodd">
        <g id="Landing-Page-" transform="translate(-1068.000000, -7330.000000)" fill="#68778D" fill-rule="nonzero">
            <g id="Press" transform="translate(237.000000, 7205.000000)">
                <path d="M839.351207,134.232927 L843.979092,146.065326 L848.661798,134.232927 L856.396259,134.232927 L844.751167,162.242364 L836.984727,162.242364 L840.182673,154.818561 L831.411164,134.232927 L839.351207,134.232927 Z M864.450514,133.762372 C868.256069,133.762372 869.978391,136.087735 869.978391,136.087735 L869.978391,136.087735 L869.978391,134.232927 L876.904228,134.232927 L876.904228,154.640389 L869.978391,154.640389 L869.978391,152.69878 C869.978391,152.69878 868.447946,155.193177 864.336301,155.193177 C858.822129,155.193177 854.710484,150.437375 854.710484,144.443511 C854.710484,139.112078 858.48406,133.762372 864.450514,133.762372 Z M866.149136,140.321384 L865.921569,140.322729 C863.335801,140.322729 861.741397,142.214086 861.741397,144.548586 C861.783663,146.828342 863.641426,148.655649 865.921569,148.660231 C867.443831,148.710631 868.872533,147.927279 869.648586,146.616721 C870.424639,145.306162 870.424639,143.676797 869.648586,142.366239 C868.872533,141.055681 867.443831,140.272329 865.921569,140.322729 Z M911.204482,133.762372 C916.805456,133.762372 922.136888,137.604475 922.136888,144.635387 C922.136888,151.081533 917.047586,155.193177 911.227324,155.193177 C905.228892,155.193177 900.299486,150.862245 900.299486,144.525744 C900.299486,138.961318 904.351741,133.762372 911.204482,133.762372 Z M934.206849,133.762372 C939.807823,133.762372 945.139256,137.604475 945.139256,144.635387 C945.139256,151.081533 940.049953,155.193177 934.23426,155.193177 C928.231259,155.193177 923.301854,150.862245 923.301854,144.525744 C923.301854,138.961318 927.354108,133.762372 934.206849,133.762372 Z M886.534614,125.219288 L886.534614,136.183673 C887.849442,134.613484 889.809659,133.730124 891.856909,133.785214 C896.265506,133.785214 898.851274,137.069961 898.851274,141.766373 L898.851274,154.663232 L891.660464,154.663232 L891.660464,143.511538 C891.660464,141.921702 890.902094,140.386688 889.188909,140.386688 C887.475724,140.386688 886.534614,141.944544 886.534614,143.511538 L886.534614,154.640389 L879.288982,154.640389 L879.288982,125.219288 L886.534614,125.219288 Z M911.268441,140.38212 C908.664399,140.38212 907.216186,142.360277 907.216186,144.50747 C907.197779,145.593181 907.616867,146.640662 908.379085,147.414051 C909.141304,148.187441 910.182576,148.621724 911.268441,148.619126 C913.502756,148.568397 915.301957,146.769196 915.352674,144.534881 C915.363627,143.442033 914.939037,142.389791 914.172694,141.61059 C913.406352,140.831389 912.361319,140.389351 911.268441,140.38212 Z M934.270808,140.38212 C931.662198,140.38212 930.218554,142.360277 930.218554,144.50747 C930.200146,145.593181 930.619235,146.640662 931.381453,147.414051 C932.143671,148.187441 933.184944,148.621724 934.270808,148.619126 C936.505123,148.568397 938.304325,146.769196 938.355042,144.534881 C938.365995,143.442033 937.941405,142.389791 937.175062,141.61059 C936.408719,140.831389 935.363687,140.389351 934.270808,140.38212 Z M950.854442,155.074396 C953.511276,155.074396 955.665066,152.920607 955.665066,150.263772 C955.665066,147.606938 953.511276,145.453148 950.854442,145.453148 C948.197607,145.453148 946.043818,147.606938 946.043818,150.263772 C946.043818,152.920607 948.197607,155.074396 950.854442,155.074396 Z M950.813325,163.745398 C952.149255,164.533977 953.070068,165.87091 953.330566,167.400193 C953.465181,168.061198 953.51127,168.737172 953.46762,169.410331 C953.46762,169.515406 953.444778,169.620482 953.426504,169.748399 L945.920468,169.748399 C945.961091,170.43346 946.41837,171.023205 947.071729,171.23316 C948.009103,171.634429 949.09941,171.330511 949.694044,170.502201 L953.083867,171.80879 C952.64533,172.575844 952.0158,173.216391 951.256469,173.668167 C950.502606,174.09634 949.666394,174.359506 948.803188,174.440243 C948.734661,174.440243 948.656996,174.440243 948.593037,174.490496 L947.103708,174.485928 L946.148893,174.289482 C943.972322,173.805234 942.346209,171.98803 942.105776,169.771242 C941.909573,168.500939 942.108946,167.201029 942.676837,166.047919 C943.471841,164.436545 945.009972,163.320545 946.788482,163.064693 C948.168275,162.79784 949.598025,163.039648 950.813325,163.745398 Z M913.753701,163.215453 C914.430981,163.435277 915.026369,163.853959 915.462318,164.416967 L915.462318,163.325097 C915.672469,163.270275 918.847572,163.252001 919.354675,163.293117 C919.404929,163.471289 919.414066,173.910297 919.354675,174.17527 L915.466887,174.17527 L915.466887,173.110811 L915.416633,173.074263 C915.260104,173.25667 915.093875,173.430524 914.918667,173.595071 C914.358616,174.062498 913.674277,174.35624 912.949647,174.440243 C912.90853,174.440243 912.867414,174.440243 912.840003,174.485928 L911.812092,174.485928 C911.359262,174.413282 910.914191,174.298573 910.48266,174.143291 C909.069811,173.568984 907.994214,172.384147 907.558824,170.922502 C906.812641,168.91243 907.13597,166.661165 908.4177,164.942344 C909.630683,163.266349 911.788759,162.567931 913.753701,163.215453 Z M911.360394,167.594259 C910.941841,168.286372 910.937334,169.152466 911.348663,169.848897 C911.759992,170.545327 912.520651,170.959496 913.328832,170.927071 C914.136631,170.967904 914.901559,170.561673 915.320112,169.86956 C915.738665,169.177447 915.743171,168.311353 915.331843,167.614922 C914.920514,166.918491 914.159854,166.504323 913.351674,166.536748 C912.543875,166.495915 911.778947,166.902146 911.360394,167.594259 Z M947.560558,165.997666 C946.523509,166.111878 945.943311,166.856543 945.979859,167.459584 L949.611811,167.459584 C949.542935,166.989145 949.285099,166.567173 948.897914,166.291229 C948.51073,166.015285 948.02772,165.909259 947.560558,165.997666 Z M964.902561,125.219288 L957.245765,143.685141 L948.588469,143.685141 L956.272676,125.219288 L964.902561,125.219288 Z M938.05809,174.485928 C937.747432,174.421969 937.432206,174.371715 937.144391,174.298619 C934.802556,173.794563 933.080474,171.796351 932.927671,169.405762 C932.725664,167.799006 933.200602,166.180577 934.238829,164.937775 C934.986192,164.059261 935.997263,163.445568 937.121549,163.188042 C938.488812,162.822236 939.940202,162.936735 941.233193,163.512405 L941.310858,163.553521 L941.310858,167.153495 C941.028194,166.984919 940.729845,166.844159 940.420001,166.733193 C939.800287,166.523442 939.131913,166.504346 938.501234,166.678371 C937.548338,166.936348 936.896874,167.814373 936.926216,168.801136 C936.955558,169.787899 937.658042,170.625663 938.624583,170.826564 C939.460987,171.020313 940.340097,170.874068 941.068727,170.419968 L941.301721,170.278345 L941.301721,173.882886 C940.729905,174.174197 940.111382,174.362847 939.474323,174.440243 C939.401227,174.440243 939.323563,174.440243 939.264172,174.485928 L938.05809,174.485928 Z M899.358377,174.179839 L895.37465,174.179839 L895.37465,163.297686 L899.344671,163.297686 L899.344671,164.421535 C899.454315,164.421535 899.472589,164.362145 899.509137,164.31646 C900.217656,163.375184 901.365609,162.871331 902.538049,162.987028 C903.455528,162.996245 904.332272,163.367301 904.977624,164.019508 C905.552652,164.639734 905.919953,165.423841 906.028378,166.262638 C906.092257,166.693571 906.119765,167.129114 906.110611,167.564659 L906.110611,173.914866 C906.110611,173.997099 906.110611,174.074763 906.110611,174.170702 L902.163432,174.170702 C902.129975,174.101113 902.120343,174.02245 902.136021,173.946845 C902.136021,172.079854 902.136021,170.21134 902.136021,168.341303 C902.144676,168.031032 902.098274,167.721682 901.998966,167.427604 C901.847542,166.929181 901.386893,166.589266 900.86598,166.59157 C900.357931,166.538792 899.868502,166.798858 899.627918,167.249433 C899.451044,167.587141 899.364488,167.964843 899.376651,168.345872 L899.376651,174.166133 L899.358377,174.179839 Z M931.726157,174.170702 L928.587602,174.170702 L927.852074,174.170702 C927.802759,174.078394 927.786632,173.971954 927.806389,173.869181 C927.806389,172.008281 927.806389,170.147381 927.806389,168.286481 C927.835546,167.872598 927.733216,167.460082 927.514006,167.10781 C927.24166,166.720191 926.770142,166.524467 926.303355,166.605275 C925.821384,166.639003 925.402656,166.949039 925.229759,167.400193 C925.095175,167.736661 925.034414,168.098106 925.051587,168.460084 C925.051587,170.244842 925.051587,172.031124 925.051587,173.818928 L925.051587,174.156996 L921.081566,174.156996 L921.081566,163.28398 L925.056156,163.28398 L925.056156,164.458083 C926.312492,162.886521 927.893191,162.603275 929.62465,163.306823 C931.081999,163.896158 931.634787,165.161631 931.753568,166.655529 C931.756213,166.670642 931.756213,166.6861 931.753568,166.701214 C931.753568,168.688509 931.753568,170.675804 931.753568,172.663099 C931.739863,173.17477 931.730726,173.672736 931.726157,174.170702 Z M888.494498,158.350007 C888.576731,159.537815 888.531046,161.461151 888.407696,161.611911 C888.023183,161.446949 887.60564,161.373448 887.187908,161.397192 C886.782241,161.384303 886.389373,161.540114 886.102811,161.827542 C885.816249,162.114969 885.661624,162.508306 885.675737,162.913932 C885.675737,163.028145 885.675737,163.142357 885.675737,163.288549 L888.334601,163.288549 L888.334601,166.486495 L885.680305,166.486495 L885.680305,174.184407 L881.710284,174.184407 L881.710284,166.491063 L880.243798,166.491063 L880.243798,163.293117 L881.710284,163.293117 C881.708679,162.881201 881.728503,162.46948 881.769675,162.059624 C882.011805,160.34187 882.802154,159.012438 884.474223,158.354575 C885.641781,157.900932 886.926303,157.844734 888.129018,158.194678 C888.25414,158.238329 888.376234,158.290219 888.494498,158.350007 Z M893.693444,174.17527 L889.755402,174.17527 C889.714286,173.983393 889.70058,163.644891 889.755402,163.297686 L893.70715,163.297686 L893.693444,174.17527 Z M891.706149,162.28348 C890.896346,162.320394 890.131748,161.909389 889.715813,161.213586 C889.299878,160.517782 889.299878,159.649718 889.715813,158.953915 C890.131748,158.258112 890.896346,157.847106 891.706149,157.88402 C892.515952,157.847106 893.28055,158.258112 893.696485,158.953915 C894.11242,159.649718 894.11242,160.517782 893.696485,161.213586 C893.28055,161.909389 892.515952,162.320394 891.706149,162.28348 L891.706149,162.28348 Z" id="Yahoo-finance"></path>
            </g>
        </g>
    </g>
</svg>